<svg width="26" height="23" viewBox="0 0 26 23" fill="none" xmlns="http://www.w3.org/2000/svg">
<path d="M8.69637 18.5196C8.69637 18.6147 8.57581 18.6908 8.42379 18.6908C8.25081 18.705 8.13024 18.629 8.13024 18.5196C8.13024 18.4244 8.25081 18.3484 8.40282 18.3484C8.56008 18.3341 8.69637 18.4102 8.69637 18.5196ZM7.06613 18.3055C7.02944 18.4007 7.13427 18.5101 7.29153 18.5386C7.42782 18.5861 7.58508 18.5386 7.61653 18.4435C7.64798 18.3484 7.54839 18.239 7.39113 18.1962C7.25484 18.1629 7.10282 18.2104 7.06613 18.3055ZM9.38306 18.2247C9.23105 18.258 9.12621 18.3484 9.14194 18.4577C9.15766 18.5529 9.29395 18.6147 9.45121 18.5814C9.60323 18.5481 9.70806 18.4577 9.69234 18.3626C9.67661 18.2723 9.53508 18.2104 9.38306 18.2247ZM12.8323 0C5.56169 0 0 5.00799 0 11.6045C0 16.8788 3.65887 21.3921 8.88508 22.9806C9.55605 23.09 9.79193 22.7143 9.79193 22.4052C9.79193 22.1103 9.77621 20.4838 9.77621 19.485C9.77621 19.485 6.10685 20.1984 5.33629 18.0678C5.33629 18.0678 4.73871 16.6838 3.87903 16.3271C3.87903 16.3271 2.67863 15.5804 3.9629 15.5947C3.9629 15.5947 5.26815 15.6898 5.98629 16.8217C7.13427 18.6575 9.05806 18.1296 9.80766 17.8157C9.92823 17.0547 10.269 16.5268 10.6464 16.2129C7.71613 15.9181 4.75968 15.5328 4.75968 10.9576C4.75968 9.64977 5.15806 8.99345 5.99677 8.15641C5.86048 7.84727 5.41492 6.57269 6.13306 4.92714C7.22863 4.618 9.75 6.21124 9.75 6.21124C10.7984 5.9449 11.9254 5.80698 13.0419 5.80698C14.1585 5.80698 15.2855 5.9449 16.3339 6.21124C16.3339 6.21124 18.8552 4.61325 19.9508 4.92714C20.669 6.57744 20.2234 7.84727 20.0871 8.15641C20.9258 8.99821 21.4395 9.65452 21.4395 10.9576C21.4395 15.5471 18.352 15.9133 15.4218 16.2129C15.904 16.5887 16.3129 17.302 16.3129 18.4197C16.3129 20.0224 16.2972 22.0057 16.2972 22.3956C16.2972 22.7048 16.5383 23.0805 17.204 22.9711C22.446 21.3921 26 16.8788 26 11.6045C26 5.00799 20.1028 0 12.8323 0ZM5.09516 16.4032C5.02702 16.4507 5.04274 16.5601 5.13185 16.6505C5.21573 16.7266 5.33629 16.7599 5.40444 16.698C5.47258 16.6505 5.45685 16.5411 5.36774 16.4507C5.28387 16.3746 5.16331 16.3414 5.09516 16.4032ZM4.52903 16.018C4.49234 16.0798 4.54476 16.1559 4.6496 16.2034C4.73347 16.251 4.83831 16.2367 4.875 16.1701C4.91169 16.1083 4.85927 16.0322 4.75444 15.9847C4.6496 15.9561 4.56573 15.9704 4.52903 16.018ZM6.22742 17.7111C6.14355 17.7729 6.175 17.9156 6.29556 18.0059C6.41613 18.1153 6.56814 18.1296 6.63629 18.0535C6.70444 17.9917 6.67298 17.849 6.56815 17.7586C6.45282 17.6492 6.29556 17.635 6.22742 17.7111ZM5.62984 17.0119C5.54597 17.0595 5.54597 17.1832 5.62984 17.2925C5.71371 17.4019 5.85524 17.4495 5.92339 17.4019C6.00726 17.3401 6.00726 17.2164 5.92339 17.1071C5.85 16.9977 5.71371 16.9501 5.62984 17.0119Z" fill="#707070"/>
</svg>
