<svg width="26" height="26" viewBox="0 0 26 26" fill="none" xmlns="http://www.w3.org/2000/svg">
<path d="M17.6427 7.96774C16.8824 3.28669 15.0893 0 13.0026 0C10.9159 0 9.12281 3.28669 8.36257 7.96774H17.6427ZM7.96935 13C7.96935 14.1637 8.03226 15.2802 8.14237 16.3548H17.8576C17.9677 15.2802 18.0307 14.1637 18.0307 13C18.0307 11.8363 17.9677 10.7198 17.8576 9.64516H8.14237C8.03226 10.7198 7.96935 11.8363 7.96935 13ZM24.9933 7.96774C23.4939 4.40847 20.4582 1.65645 16.7094 0.545161C17.9887 2.31694 18.8695 4.98508 19.3309 7.96774H24.9933ZM9.29058 0.545161C5.54709 1.65645 2.50615 4.40847 1.0119 7.96774H6.67433C7.13047 4.98508 8.01129 2.31694 9.29058 0.545161ZM25.5543 9.64516H19.5406C19.6507 10.746 19.7137 11.873 19.7137 13C19.7137 14.127 19.6507 15.254 19.5406 16.3548H25.5491C25.8375 15.2802 26 14.1637 26 13C26 11.8363 25.8375 10.7198 25.5543 9.64516ZM6.29159 13C6.29159 11.873 6.35451 10.746 6.46461 9.64516H0.450897C0.167776 10.7198 0 11.8363 0 13C0 14.1637 0.167776 15.2802 0.450897 16.3548H6.45937C6.35451 15.254 6.29159 14.127 6.29159 13ZM8.36257 18.0323C9.12281 22.7133 10.9159 26 13.0026 26C15.0893 26 16.8824 22.7133 17.6427 18.0323H8.36257ZM16.7147 25.4548C20.4582 24.3435 23.4991 21.5915 24.9986 18.0323H19.3362C18.8748 21.0149 17.9939 23.6831 16.7147 25.4548ZM1.0119 18.0323C2.51139 21.5915 5.54709 24.3435 9.29583 25.4548C8.01654 23.6831 7.13571 21.0149 6.67433 18.0323H1.0119Z" fill="#707070"/>
</svg>
