<svg width="23" height="27" viewBox="0 0 23 27" fill="none" xmlns="http://www.w3.org/2000/svg">
<path d="M5.1483 23.0768H0.379911V7.67H5.1483V23.0768ZM2.76154 5.56837C1.23676 5.56837 0 4.30121 0 2.77136C1.09137e-08 2.03651 0.290947 1.33176 0.808836 0.812143C1.32673 0.292527 2.02913 0.000610352 2.76154 0.000610352C3.49395 0.000610352 4.19635 0.292527 4.71424 0.812143C5.23213 1.33176 5.52308 2.03651 5.52308 2.77136C5.52308 4.30121 4.2858 5.56837 2.76154 5.56837ZM22.9949 23.0768H18.2367V15.5768C18.2367 13.7894 18.2008 11.4972 15.7576 11.4972C13.2784 11.4972 12.8985 13.4392 12.8985 15.4481V23.0768H8.13522V7.67H12.7085V9.77162H12.7753C13.4119 8.56113 14.9669 7.28367 17.287 7.28367C22.1129 7.28367 23 10.4722 23 14.6136V23.0768H22.9949Z" fill="#707070"/>
</svg>
